<?xml version="1.0" standalone="no"?>
 <!DOCTYPE svg PUBLIC "-//W3C//DTD SVG 1.1//EN" 
 "http://www.w3.org/Graphics/SVG/1.1/DTD/svg11.dtd"> 
<svg xmlns="http://www.w3.org/2000/svg" version="1.1" 
    width="41.9989cm" height="29.7002cm" viewBox="0 0 165350 116930 ">
<title>SVG Picture created as Spelsberg-TG-PC-3023-F.Fab.svg date 2019/02/04 13:56:42 </title>
  <desc>Picture generated by PCBNEW </desc>
<g style="fill:#000000; fill-opacity:1;stroke:#000000; stroke-opacity:1;
stroke-linecap:round; stroke-linejoin:round; "
 transform="translate(0 0) scale(1 1)">
</g>
<g style="fill:#000000; fill-opacity:0.0; 
stroke:#000000; stroke-width:-0.000393701; stroke-opacity:1; 
stroke-linecap:round; stroke-linejoin:round;">
</g>
<g style="fill:#000000; fill-opacity:0.0; 
stroke:#000000; stroke-width:39.3701; stroke-opacity:1; 
stroke-linecap:round; stroke-linejoin:round;">
</g>
<g style="fill:#000000; fill-opacity:0.0; 
stroke:#000000; stroke-width:59.0551; stroke-opacity:1; 
stroke-linecap:round; stroke-linejoin:round;">
<rect x="118106" y="99607.2" width="42519.7" height="12598.4" rx="0" />
</g>
<g style="fill:#000000; fill-opacity:0.0; 
stroke:#000000; stroke-width:39.3701; stroke-opacity:1; 
stroke-linecap:round; stroke-linejoin:round;">
</g>
<g style="fill:#000000; fill-opacity:0.0; 
stroke:#000000; stroke-width:59.0551; stroke-opacity:1; 
stroke-linecap:round; stroke-linejoin:round;">
<rect x="3937.01" y="3937.01" width="157476" height="109056" rx="0" />
</g>
<g style="fill:#000000; fill-opacity:0.0; 
stroke:#000000; stroke-width:39.3701; stroke-opacity:1; 
stroke-linecap:round; stroke-linejoin:round;">
</g>
<g style="fill:#000000; fill-opacity:0.0; 
stroke:#000000; stroke-width:59.0551; stroke-opacity:1; 
stroke-linecap:round; stroke-linejoin:round;">
<rect x="4724.41" y="4724.41" width="155901" height="107481" rx="0" />
</g>
<g style="fill:#000000; fill-opacity:0.0; 
stroke:#000000; stroke-width:39.3701; stroke-opacity:1; 
stroke-linecap:round; stroke-linejoin:round;">
</g>
<g style="fill:#000000; fill-opacity:0.0; 
stroke:#000000; stroke-width:59.0551; stroke-opacity:1; 
stroke-linecap:round; stroke-linejoin:round;">
<path d="M23622 4724
L23622 3937
" />
</g>
<g style="fill:#000000; fill-opacity:0.0; 
stroke:#000000; stroke-width:39.3701; stroke-opacity:1; 
stroke-linecap:round; stroke-linejoin:round;">
</g>
<g style="fill:#000000; fill-opacity:0.0; 
stroke:#000000; stroke-width:59.0551; stroke-opacity:1; 
stroke-linecap:round; stroke-linejoin:round;">
<path d="M43307 4724
L43307 3937
" />
</g>
<g style="fill:#000000; fill-opacity:0.0; 
stroke:#000000; stroke-width:39.3701; stroke-opacity:1; 
stroke-linecap:round; stroke-linejoin:round;">
</g>
<g style="fill:#000000; fill-opacity:0.0; 
stroke:#000000; stroke-width:59.0551; stroke-opacity:1; 
stroke-linecap:round; stroke-linejoin:round;">
<path d="M62992 4724
L62992 3937
" />
</g>
<g style="fill:#000000; fill-opacity:0.0; 
stroke:#000000; stroke-width:39.3701; stroke-opacity:1; 
stroke-linecap:round; stroke-linejoin:round;">
</g>
<g style="fill:#000000; fill-opacity:0.0; 
stroke:#000000; stroke-width:59.0551; stroke-opacity:1; 
stroke-linecap:round; stroke-linejoin:round;">
<path d="M82677 4724
L82677 3937
" />
</g>
<g style="fill:#000000; fill-opacity:0.0; 
stroke:#000000; stroke-width:39.3701; stroke-opacity:1; 
stroke-linecap:round; stroke-linejoin:round;">
</g>
<g style="fill:#000000; fill-opacity:0.0; 
stroke:#000000; stroke-width:59.0551; stroke-opacity:1; 
stroke-linecap:round; stroke-linejoin:round;">
<path d="M102362 4724
L102362 3937
" />
</g>
<g style="fill:#000000; fill-opacity:0.0; 
stroke:#000000; stroke-width:39.3701; stroke-opacity:1; 
stroke-linecap:round; stroke-linejoin:round;">
</g>
<g style="fill:#000000; fill-opacity:0.0; 
stroke:#000000; stroke-width:59.0551; stroke-opacity:1; 
stroke-linecap:round; stroke-linejoin:round;">
<path d="M122047 4724
L122047 3937
" />
</g>
<g style="fill:#000000; fill-opacity:0.0; 
stroke:#000000; stroke-width:39.3701; stroke-opacity:1; 
stroke-linecap:round; stroke-linejoin:round;">
</g>
<g style="fill:#000000; fill-opacity:0.0; 
stroke:#000000; stroke-width:59.0551; stroke-opacity:1; 
stroke-linecap:round; stroke-linejoin:round;">
<path d="M141732 4724
L141732 3937
" />
</g>
<g style="fill:#000000; fill-opacity:0.0; 
stroke:#000000; stroke-width:39.3701; stroke-opacity:1; 
stroke-linecap:round; stroke-linejoin:round;">
</g>
<g style="fill:#000000; fill-opacity:0.0; 
stroke:#000000; stroke-width:59.0551; stroke-opacity:1; 
stroke-linecap:round; stroke-linejoin:round;">
<path d="M14199 4562
L13906 4562
" />
<path d="M14052 4562
L14052 4050
L14004 4123
L13955 4172
L13906 4196
" />
</g>
<g style="fill:#000000; fill-opacity:0.0; 
stroke:#000000; stroke-width:39.3701; stroke-opacity:1; 
stroke-linecap:round; stroke-linejoin:round;">
</g>
<g style="fill:#000000; fill-opacity:0.0; 
stroke:#000000; stroke-width:59.0551; stroke-opacity:1; 
stroke-linecap:round; stroke-linejoin:round;">
<path d="M33591 4099
L33615 4074
L33664 4050
L33786 4050
L33835 4074
L33859 4099
L33884 4147
L33884 4196
L33859 4269
L33567 4562
L33884 4562
" />
</g>
<g style="fill:#000000; fill-opacity:0.0; 
stroke:#000000; stroke-width:39.3701; stroke-opacity:1; 
stroke-linecap:round; stroke-linejoin:round;">
</g>
<g style="fill:#000000; fill-opacity:0.0; 
stroke:#000000; stroke-width:59.0551; stroke-opacity:1; 
stroke-linecap:round; stroke-linejoin:round;">
<path d="M53252 4050
L53569 4050
L53398 4245
L53471 4245
L53520 4269
L53544 4294
L53569 4342
L53569 4464
L53544 4513
L53520 4537
L53471 4562
L53325 4562
L53276 4537
L53252 4513
" />
</g>
<g style="fill:#000000; fill-opacity:0.0; 
stroke:#000000; stroke-width:39.3701; stroke-opacity:1; 
stroke-linecap:round; stroke-linejoin:round;">
</g>
<g style="fill:#000000; fill-opacity:0.0; 
stroke:#000000; stroke-width:59.0551; stroke-opacity:1; 
stroke-linecap:round; stroke-linejoin:round;">
<path d="M73205 4221
L73205 4562
" />
<path d="M73083 4026
L72961 4391
L73278 4391
" />
</g>
<g style="fill:#000000; fill-opacity:0.0; 
stroke:#000000; stroke-width:39.3701; stroke-opacity:1; 
stroke-linecap:round; stroke-linejoin:round;">
</g>
<g style="fill:#000000; fill-opacity:0.0; 
stroke:#000000; stroke-width:59.0551; stroke-opacity:1; 
stroke-linecap:round; stroke-linejoin:round;">
<path d="M92914 4050
L92671 4050
L92646 4294
L92671 4269
L92719 4245
L92841 4245
L92890 4269
L92914 4294
L92939 4342
L92939 4464
L92914 4513
L92890 4537
L92841 4562
L92719 4562
L92671 4537
L92646 4513
" />
</g>
<g style="fill:#000000; fill-opacity:0.0; 
stroke:#000000; stroke-width:39.3701; stroke-opacity:1; 
stroke-linecap:round; stroke-linejoin:round;">
</g>
<g style="fill:#000000; fill-opacity:0.0; 
stroke:#000000; stroke-width:59.0551; stroke-opacity:1; 
stroke-linecap:round; stroke-linejoin:round;">
<path d="M112575 4050
L112477 4050
L112429 4074
L112404 4099
L112356 4172
L112331 4269
L112331 4464
L112356 4513
L112380 4537
L112429 4562
L112526 4562
L112575 4537
L112599 4513
L112624 4464
L112624 4342
L112599 4294
L112575 4269
L112526 4245
L112429 4245
L112380 4269
L112356 4294
L112331 4342
" />
</g>
<g style="fill:#000000; fill-opacity:0.0; 
stroke:#000000; stroke-width:39.3701; stroke-opacity:1; 
stroke-linecap:round; stroke-linejoin:round;">
</g>
<g style="fill:#000000; fill-opacity:0.0; 
stroke:#000000; stroke-width:59.0551; stroke-opacity:1; 
stroke-linecap:round; stroke-linejoin:round;">
<path d="M131992 4050
L132333 4050
L132114 4562
" />
</g>
<g style="fill:#000000; fill-opacity:0.0; 
stroke:#000000; stroke-width:39.3701; stroke-opacity:1; 
stroke-linecap:round; stroke-linejoin:round;">
</g>
<g style="fill:#000000; fill-opacity:0.0; 
stroke:#000000; stroke-width:59.0551; stroke-opacity:1; 
stroke-linecap:round; stroke-linejoin:round;">
<path d="M151799 4269
L151750 4245
L151726 4221
L151701 4172
L151701 4147
L151726 4099
L151750 4074
L151799 4050
L151896 4050
L151945 4074
L151969 4099
L151994 4147
L151994 4172
L151969 4221
L151945 4245
L151896 4269
L151799 4269
L151750 4294
L151726 4318
L151701 4367
L151701 4464
L151726 4513
L151750 4537
L151799 4562
L151896 4562
L151945 4537
L151969 4513
L151994 4464
L151994 4367
L151969 4318
L151945 4294
L151896 4269
" />
</g>
<g style="fill:#000000; fill-opacity:0.0; 
stroke:#000000; stroke-width:39.3701; stroke-opacity:1; 
stroke-linecap:round; stroke-linejoin:round;">
</g>
<g style="fill:#000000; fill-opacity:0.0; 
stroke:#000000; stroke-width:59.0551; stroke-opacity:1; 
stroke-linecap:round; stroke-linejoin:round;">
<path d="M23622 112205
L23622 112992
" />
</g>
<g style="fill:#000000; fill-opacity:0.0; 
stroke:#000000; stroke-width:39.3701; stroke-opacity:1; 
stroke-linecap:round; stroke-linejoin:round;">
</g>
<g style="fill:#000000; fill-opacity:0.0; 
stroke:#000000; stroke-width:59.0551; stroke-opacity:1; 
stroke-linecap:round; stroke-linejoin:round;">
<path d="M43307 112205
L43307 112992
" />
</g>
<g style="fill:#000000; fill-opacity:0.0; 
stroke:#000000; stroke-width:39.3701; stroke-opacity:1; 
stroke-linecap:round; stroke-linejoin:round;">
</g>
<g style="fill:#000000; fill-opacity:0.0; 
stroke:#000000; stroke-width:59.0551; stroke-opacity:1; 
stroke-linecap:round; stroke-linejoin:round;">
<path d="M62992 112205
L62992 112992
" />
</g>
<g style="fill:#000000; fill-opacity:0.0; 
stroke:#000000; stroke-width:39.3701; stroke-opacity:1; 
stroke-linecap:round; stroke-linejoin:round;">
</g>
<g style="fill:#000000; fill-opacity:0.0; 
stroke:#000000; stroke-width:59.0551; stroke-opacity:1; 
stroke-linecap:round; stroke-linejoin:round;">
<path d="M82677 112205
L82677 112992
" />
</g>
<g style="fill:#000000; fill-opacity:0.0; 
stroke:#000000; stroke-width:39.3701; stroke-opacity:1; 
stroke-linecap:round; stroke-linejoin:round;">
</g>
<g style="fill:#000000; fill-opacity:0.0; 
stroke:#000000; stroke-width:59.0551; stroke-opacity:1; 
stroke-linecap:round; stroke-linejoin:round;">
<path d="M102362 112205
L102362 112992
" />
</g>
<g style="fill:#000000; fill-opacity:0.0; 
stroke:#000000; stroke-width:39.3701; stroke-opacity:1; 
stroke-linecap:round; stroke-linejoin:round;">
</g>
<g style="fill:#000000; fill-opacity:0.0; 
stroke:#000000; stroke-width:59.0551; stroke-opacity:1; 
stroke-linecap:round; stroke-linejoin:round;">
<path d="M122047 112205
L122047 112992
" />
</g>
<g style="fill:#000000; fill-opacity:0.0; 
stroke:#000000; stroke-width:39.3701; stroke-opacity:1; 
stroke-linecap:round; stroke-linejoin:round;">
</g>
<g style="fill:#000000; fill-opacity:0.0; 
stroke:#000000; stroke-width:59.0551; stroke-opacity:1; 
stroke-linecap:round; stroke-linejoin:round;">
<path d="M141732 112205
L141732 112992
" />
</g>
<g style="fill:#000000; fill-opacity:0.0; 
stroke:#000000; stroke-width:39.3701; stroke-opacity:1; 
stroke-linecap:round; stroke-linejoin:round;">
</g>
<g style="fill:#000000; fill-opacity:0.0; 
stroke:#000000; stroke-width:59.0551; stroke-opacity:1; 
stroke-linecap:round; stroke-linejoin:round;">
<path d="M14199 112830
L13906 112830
" />
<path d="M14052 112830
L14052 112319
L14004 112392
L13955 112440
L13906 112465
" />
</g>
<g style="fill:#000000; fill-opacity:0.0; 
stroke:#000000; stroke-width:39.3701; stroke-opacity:1; 
stroke-linecap:round; stroke-linejoin:round;">
</g>
<g style="fill:#000000; fill-opacity:0.0; 
stroke:#000000; stroke-width:59.0551; stroke-opacity:1; 
stroke-linecap:round; stroke-linejoin:round;">
<path d="M33591 112367
L33615 112343
L33664 112319
L33786 112319
L33835 112343
L33859 112367
L33884 112416
L33884 112465
L33859 112538
L33567 112830
L33884 112830
" />
</g>
<g style="fill:#000000; fill-opacity:0.0; 
stroke:#000000; stroke-width:39.3701; stroke-opacity:1; 
stroke-linecap:round; stroke-linejoin:round;">
</g>
<g style="fill:#000000; fill-opacity:0.0; 
stroke:#000000; stroke-width:59.0551; stroke-opacity:1; 
stroke-linecap:round; stroke-linejoin:round;">
<path d="M53252 112319
L53569 112319
L53398 112513
L53471 112513
L53520 112538
L53544 112562
L53569 112611
L53569 112733
L53544 112782
L53520 112806
L53471 112830
L53325 112830
L53276 112806
L53252 112782
" />
</g>
<g style="fill:#000000; fill-opacity:0.0; 
stroke:#000000; stroke-width:39.3701; stroke-opacity:1; 
stroke-linecap:round; stroke-linejoin:round;">
</g>
<g style="fill:#000000; fill-opacity:0.0; 
stroke:#000000; stroke-width:59.0551; stroke-opacity:1; 
stroke-linecap:round; stroke-linejoin:round;">
<path d="M73205 112489
L73205 112830
" />
<path d="M73083 112294
L72961 112660
L73278 112660
" />
</g>
<g style="fill:#000000; fill-opacity:0.0; 
stroke:#000000; stroke-width:39.3701; stroke-opacity:1; 
stroke-linecap:round; stroke-linejoin:round;">
</g>
<g style="fill:#000000; fill-opacity:0.0; 
stroke:#000000; stroke-width:59.0551; stroke-opacity:1; 
stroke-linecap:round; stroke-linejoin:round;">
<path d="M92914 112319
L92671 112319
L92646 112562
L92671 112538
L92719 112513
L92841 112513
L92890 112538
L92914 112562
L92939 112611
L92939 112733
L92914 112782
L92890 112806
L92841 112830
L92719 112830
L92671 112806
L92646 112782
" />
</g>
<g style="fill:#000000; fill-opacity:0.0; 
stroke:#000000; stroke-width:39.3701; stroke-opacity:1; 
stroke-linecap:round; stroke-linejoin:round;">
</g>
<g style="fill:#000000; fill-opacity:0.0; 
stroke:#000000; stroke-width:59.0551; stroke-opacity:1; 
stroke-linecap:round; stroke-linejoin:round;">
<path d="M112575 112319
L112477 112319
L112429 112343
L112404 112367
L112356 112440
L112331 112538
L112331 112733
L112356 112782
L112380 112806
L112429 112830
L112526 112830
L112575 112806
L112599 112782
L112624 112733
L112624 112611
L112599 112562
L112575 112538
L112526 112513
L112429 112513
L112380 112538
L112356 112562
L112331 112611
" />
</g>
<g style="fill:#000000; fill-opacity:0.0; 
stroke:#000000; stroke-width:39.3701; stroke-opacity:1; 
stroke-linecap:round; stroke-linejoin:round;">
</g>
<g style="fill:#000000; fill-opacity:0.0; 
stroke:#000000; stroke-width:59.0551; stroke-opacity:1; 
stroke-linecap:round; stroke-linejoin:round;">
<path d="M131992 112319
L132333 112319
L132114 112830
" />
</g>
<g style="fill:#000000; fill-opacity:0.0; 
stroke:#000000; stroke-width:39.3701; stroke-opacity:1; 
stroke-linecap:round; stroke-linejoin:round;">
</g>
<g style="fill:#000000; fill-opacity:0.0; 
stroke:#000000; stroke-width:59.0551; stroke-opacity:1; 
stroke-linecap:round; stroke-linejoin:round;">
<path d="M151799 112538
L151750 112513
L151726 112489
L151701 112440
L151701 112416
L151726 112367
L151750 112343
L151799 112319
L151896 112319
L151945 112343
L151969 112367
L151994 112416
L151994 112440
L151969 112489
L151945 112513
L151896 112538
L151799 112538
L151750 112562
L151726 112587
L151701 112635
L151701 112733
L151726 112782
L151750 112806
L151799 112830
L151896 112830
L151945 112806
L151969 112782
L151994 112733
L151994 112635
L151969 112587
L151945 112562
L151896 112538
" />
</g>
<g style="fill:#000000; fill-opacity:0.0; 
stroke:#000000; stroke-width:39.3701; stroke-opacity:1; 
stroke-linecap:round; stroke-linejoin:round;">
</g>
<g style="fill:#000000; fill-opacity:0.0; 
stroke:#000000; stroke-width:59.0551; stroke-opacity:1; 
stroke-linecap:round; stroke-linejoin:round;">
<path d="M3937 23622
L4724 23622
" />
</g>
<g style="fill:#000000; fill-opacity:0.0; 
stroke:#000000; stroke-width:39.3701; stroke-opacity:1; 
stroke-linecap:round; stroke-linejoin:round;">
</g>
<g style="fill:#000000; fill-opacity:0.0; 
stroke:#000000; stroke-width:59.0551; stroke-opacity:1; 
stroke-linecap:round; stroke-linejoin:round;">
<path d="M3937 43307
L4724 43307
" />
</g>
<g style="fill:#000000; fill-opacity:0.0; 
stroke:#000000; stroke-width:39.3701; stroke-opacity:1; 
stroke-linecap:round; stroke-linejoin:round;">
</g>
<g style="fill:#000000; fill-opacity:0.0; 
stroke:#000000; stroke-width:59.0551; stroke-opacity:1; 
stroke-linecap:round; stroke-linejoin:round;">
<path d="M3937 62992
L4724 62992
" />
</g>
<g style="fill:#000000; fill-opacity:0.0; 
stroke:#000000; stroke-width:39.3701; stroke-opacity:1; 
stroke-linecap:round; stroke-linejoin:round;">
</g>
<g style="fill:#000000; fill-opacity:0.0; 
stroke:#000000; stroke-width:59.0551; stroke-opacity:1; 
stroke-linecap:round; stroke-linejoin:round;">
<path d="M3937 82677
L4724 82677
" />
</g>
<g style="fill:#000000; fill-opacity:0.0; 
stroke:#000000; stroke-width:39.3701; stroke-opacity:1; 
stroke-linecap:round; stroke-linejoin:round;">
</g>
<g style="fill:#000000; fill-opacity:0.0; 
stroke:#000000; stroke-width:59.0551; stroke-opacity:1; 
stroke-linecap:round; stroke-linejoin:round;">
<path d="M3937 102362
L4724 102362
" />
</g>
<g style="fill:#000000; fill-opacity:0.0; 
stroke:#000000; stroke-width:39.3701; stroke-opacity:1; 
stroke-linecap:round; stroke-linejoin:round;">
</g>
<g style="fill:#000000; fill-opacity:0.0; 
stroke:#000000; stroke-width:59.0551; stroke-opacity:1; 
stroke-linecap:round; stroke-linejoin:round;">
<path d="M4208 13864
L4452 13864
" />
<path d="M4160 14011
L4330 13499
L4501 14011
" />
</g>
<g style="fill:#000000; fill-opacity:0.0; 
stroke:#000000; stroke-width:39.3701; stroke-opacity:1; 
stroke-linecap:round; stroke-linejoin:round;">
</g>
<g style="fill:#000000; fill-opacity:0.0; 
stroke:#000000; stroke-width:59.0551; stroke-opacity:1; 
stroke-linecap:round; stroke-linejoin:round;">
<path d="M4367 33428
L4440 33452
L4464 33476
L4489 33525
L4489 33598
L4464 33647
L4440 33671
L4391 33696
L4196 33696
L4196 33184
L4367 33184
L4416 33208
L4440 33233
L4464 33281
L4464 33330
L4440 33379
L4416 33403
L4367 33428
L4196 33428
" />
</g>
<g style="fill:#000000; fill-opacity:0.0; 
stroke:#000000; stroke-width:39.3701; stroke-opacity:1; 
stroke-linecap:round; stroke-linejoin:round;">
</g>
<g style="fill:#000000; fill-opacity:0.0; 
stroke:#000000; stroke-width:59.0551; stroke-opacity:1; 
stroke-linecap:round; stroke-linejoin:round;">
<path d="M4489 53332
L4464 53356
L4391 53381
L4342 53381
L4269 53356
L4221 53308
L4196 53259
L4172 53161
L4172 53088
L4196 52991
L4221 52942
L4269 52893
L4342 52869
L4391 52869
L4464 52893
L4489 52918
" />
</g>
<g style="fill:#000000; fill-opacity:0.0; 
stroke:#000000; stroke-width:39.3701; stroke-opacity:1; 
stroke-linecap:round; stroke-linejoin:round;">
</g>
<g style="fill:#000000; fill-opacity:0.0; 
stroke:#000000; stroke-width:59.0551; stroke-opacity:1; 
stroke-linecap:round; stroke-linejoin:round;">
<path d="M4196 73066
L4196 72554
L4318 72554
L4391 72578
L4440 72627
L4464 72676
L4489 72773
L4489 72846
L4464 72944
L4440 72993
L4391 73041
L4318 73066
L4196 73066
" />
</g>
<g style="fill:#000000; fill-opacity:0.0; 
stroke:#000000; stroke-width:39.3701; stroke-opacity:1; 
stroke-linecap:round; stroke-linejoin:round;">
</g>
<g style="fill:#000000; fill-opacity:0.0; 
stroke:#000000; stroke-width:59.0551; stroke-opacity:1; 
stroke-linecap:round; stroke-linejoin:round;">
<path d="M4221 92483
L4391 92483
" />
<path d="M4464 92751
L4221 92751
L4221 92239
L4464 92239
" />
</g>
<g style="fill:#000000; fill-opacity:0.0; 
stroke:#000000; stroke-width:39.3701; stroke-opacity:1; 
stroke-linecap:round; stroke-linejoin:round;">
</g>
<g style="fill:#000000; fill-opacity:0.0; 
stroke:#000000; stroke-width:59.0551; stroke-opacity:1; 
stroke-linecap:round; stroke-linejoin:round;">
<path d="M4403 112168
L4233 112168
" />
<path d="M4233 112436
L4233 111924
L4476 111924
" />
</g>
<g style="fill:#000000; fill-opacity:0.0; 
stroke:#000000; stroke-width:39.3701; stroke-opacity:1; 
stroke-linecap:round; stroke-linejoin:round;">
</g>
<g style="fill:#000000; fill-opacity:0.0; 
stroke:#000000; stroke-width:59.0551; stroke-opacity:1; 
stroke-linecap:round; stroke-linejoin:round;">
<path d="M161412 23622
L160625 23622
" />
</g>
<g style="fill:#000000; fill-opacity:0.0; 
stroke:#000000; stroke-width:39.3701; stroke-opacity:1; 
stroke-linecap:round; stroke-linejoin:round;">
</g>
<g style="fill:#000000; fill-opacity:0.0; 
stroke:#000000; stroke-width:59.0551; stroke-opacity:1; 
stroke-linecap:round; stroke-linejoin:round;">
<path d="M161412 43307
L160625 43307
" />
</g>
<g style="fill:#000000; fill-opacity:0.0; 
stroke:#000000; stroke-width:39.3701; stroke-opacity:1; 
stroke-linecap:round; stroke-linejoin:round;">
</g>
<g style="fill:#000000; fill-opacity:0.0; 
stroke:#000000; stroke-width:59.0551; stroke-opacity:1; 
stroke-linecap:round; stroke-linejoin:round;">
<path d="M161412 62992
L160625 62992
" />
</g>
<g style="fill:#000000; fill-opacity:0.0; 
stroke:#000000; stroke-width:39.3701; stroke-opacity:1; 
stroke-linecap:round; stroke-linejoin:round;">
</g>
<g style="fill:#000000; fill-opacity:0.0; 
stroke:#000000; stroke-width:59.0551; stroke-opacity:1; 
stroke-linecap:round; stroke-linejoin:round;">
<path d="M161412 82677
L160625 82677
" />
</g>
<g style="fill:#000000; fill-opacity:0.0; 
stroke:#000000; stroke-width:39.3701; stroke-opacity:1; 
stroke-linecap:round; stroke-linejoin:round;">
</g>
<g style="fill:#000000; fill-opacity:0.0; 
stroke:#000000; stroke-width:59.0551; stroke-opacity:1; 
stroke-linecap:round; stroke-linejoin:round;">
<path d="M161412 102362
L160625 102362
" />
</g>
<g style="fill:#000000; fill-opacity:0.0; 
stroke:#000000; stroke-width:39.3701; stroke-opacity:1; 
stroke-linecap:round; stroke-linejoin:round;">
</g>
<g style="fill:#000000; fill-opacity:0.0; 
stroke:#000000; stroke-width:59.0551; stroke-opacity:1; 
stroke-linecap:round; stroke-linejoin:round;">
<path d="M160897 13864
L161141 13864
" />
<path d="M160848 14011
L161019 13499
L161189 14011
" />
</g>
<g style="fill:#000000; fill-opacity:0.0; 
stroke:#000000; stroke-width:39.3701; stroke-opacity:1; 
stroke-linecap:round; stroke-linejoin:round;">
</g>
<g style="fill:#000000; fill-opacity:0.0; 
stroke:#000000; stroke-width:59.0551; stroke-opacity:1; 
stroke-linecap:round; stroke-linejoin:round;">
<path d="M161055 33428
L161128 33452
L161153 33476
L161177 33525
L161177 33598
L161153 33647
L161128 33671
L161080 33696
L160885 33696
L160885 33184
L161055 33184
L161104 33208
L161128 33233
L161153 33281
L161153 33330
L161128 33379
L161104 33403
L161055 33428
L160885 33428
" />
</g>
<g style="fill:#000000; fill-opacity:0.0; 
stroke:#000000; stroke-width:39.3701; stroke-opacity:1; 
stroke-linecap:round; stroke-linejoin:round;">
</g>
<g style="fill:#000000; fill-opacity:0.0; 
stroke:#000000; stroke-width:59.0551; stroke-opacity:1; 
stroke-linecap:round; stroke-linejoin:round;">
<path d="M161177 53332
L161153 53356
L161080 53381
L161031 53381
L160958 53356
L160909 53308
L160885 53259
L160860 53161
L160860 53088
L160885 52991
L160909 52942
L160958 52893
L161031 52869
L161080 52869
L161153 52893
L161177 52918
" />
</g>
<g style="fill:#000000; fill-opacity:0.0; 
stroke:#000000; stroke-width:39.3701; stroke-opacity:1; 
stroke-linecap:round; stroke-linejoin:round;">
</g>
<g style="fill:#000000; fill-opacity:0.0; 
stroke:#000000; stroke-width:59.0551; stroke-opacity:1; 
stroke-linecap:round; stroke-linejoin:round;">
<path d="M160885 73066
L160885 72554
L161007 72554
L161080 72578
L161128 72627
L161153 72676
L161177 72773
L161177 72846
L161153 72944
L161128 72993
L161080 73041
L161007 73066
L160885 73066
" />
</g>
<g style="fill:#000000; fill-opacity:0.0; 
stroke:#000000; stroke-width:39.3701; stroke-opacity:1; 
stroke-linecap:round; stroke-linejoin:round;">
</g>
<g style="fill:#000000; fill-opacity:0.0; 
stroke:#000000; stroke-width:59.0551; stroke-opacity:1; 
stroke-linecap:round; stroke-linejoin:round;">
<path d="M160909 92483
L161080 92483
" />
<path d="M161153 92751
L160909 92751
L160909 92239
L161153 92239
" />
</g>
<g style="fill:#000000; fill-opacity:0.0; 
stroke:#000000; stroke-width:39.3701; stroke-opacity:1; 
stroke-linecap:round; stroke-linejoin:round;">
</g>
<g style="fill:#000000; fill-opacity:0.0; 
stroke:#000000; stroke-width:59.0551; stroke-opacity:1; 
stroke-linecap:round; stroke-linejoin:round;">
<path d="M161092 112168
L160921 112168
" />
<path d="M160921 112436
L160921 111924
L161165 111924
" />
</g>
<g style="fill:#000000; fill-opacity:0.0; 
stroke:#000000; stroke-width:39.3701; stroke-opacity:1; 
stroke-linecap:round; stroke-linejoin:round;">
</g>
<g style="fill:#000000; fill-opacity:0.0; 
stroke:#000000; stroke-width:59.0551; stroke-opacity:1; 
stroke-linecap:round; stroke-linejoin:round;">
<path d="M127331 110543
L127331 109953
L127471 109953
L127556 109981
L127612 110037
L127640 110093
L127668 110206
L127668 110290
L127640 110403
L127612 110459
L127556 110515
L127471 110543
L127331 110543
" />
<path d="M128174 110543
L128174 110234
L128146 110178
L128090 110149
L127977 110149
L127921 110178
" />
<path d="M128174 110515
L128118 110543
L127977 110543
L127921 110515
L127893 110459
L127893 110403
L127921 110346
L127977 110318
L128118 110318
L128174 110290
" />
<path d="M128371 110149
L128596 110149
" />
<path d="M128456 109953
L128456 110459
L128484 110515
L128540 110543
L128596 110543
" />
<path d="M129018 110515
L128962 110543
L128849 110543
L128793 110515
L128765 110459
L128765 110234
L128793 110178
L128849 110149
L128962 110149
L129018 110178
L129046 110234
L129046 110290
L128765 110346
" />
<path d="M129299 110487
L129327 110515
L129299 110543
L129271 110515
L129299 110487
L129299 110543
" />
<path d="M129299 110178
L129327 110206
L129299 110234
L129271 110206
L129299 110178
L129299 110234
" />
</g>
<g style="fill:#000000; fill-opacity:0.0; 
stroke:#000000; stroke-width:39.3701; stroke-opacity:1; 
stroke-linecap:round; stroke-linejoin:round;">
</g>
<g style="fill:#000000; fill-opacity:0.0; 
stroke:#000000; stroke-width:59.0551; stroke-opacity:1; 
stroke-linecap:round; stroke-linejoin:round;">
<path d="M118105 110827
L160625 110827
" />
</g>
<g style="fill:#000000; fill-opacity:0.0; 
stroke:#000000; stroke-width:39.3701; stroke-opacity:1; 
stroke-linecap:round; stroke-linejoin:round;">
</g>
<g style="fill:#000000; fill-opacity:0.0; 
stroke:#000000; stroke-width:59.0551; stroke-opacity:1; 
stroke-linecap:round; stroke-linejoin:round;">
<path d="M118669 111645
L118669 111055
" />
<path d="M119007 111645
L118754 111308
" />
<path d="M119007 111055
L118669 111392
" />
<path d="M119260 111645
L119260 111252
" />
<path d="M119260 111055
L119232 111083
L119260 111111
L119288 111083
L119260 111055
L119260 111111
" />
<path d="M119878 111589
L119850 111617
L119766 111645
L119710 111645
L119625 111617
L119569 111561
L119541 111505
L119513 111392
L119513 111308
L119541 111196
L119569 111139
L119625 111083
L119710 111055
L119766 111055
L119850 111083
L119878 111111
" />
<path d="M120385 111645
L120385 111336
L120357 111280
L120300 111252
L120188 111252
L120132 111280
" />
<path d="M120385 111617
L120328 111645
L120188 111645
L120132 111617
L120103 111561
L120103 111505
L120132 111449
L120188 111421
L120328 111421
L120385 111392
" />
<path d="M120919 111645
L120919 111055
" />
<path d="M120919 111617
L120863 111645
L120750 111645
L120694 111617
L120666 111589
L120638 111533
L120638 111364
L120666 111308
L120694 111280
L120750 111252
L120863 111252
L120919 111280
" />
<path d="M121650 111336
L121847 111336
" />
<path d="M121931 111645
L121650 111645
L121650 111055
L121931 111055
" />
<path d="M122184 111589
L122213 111617
L122184 111645
L122156 111617
L122184 111589
L122184 111645
" />
<path d="M122466 111645
L122466 111055
L122606 111055
L122691 111083
L122747 111139
L122775 111196
L122803 111308
L122803 111392
L122775 111505
L122747 111561
L122691 111617
L122606 111645
L122466 111645
" />
<path d="M123056 111589
L123084 111617
L123056 111645
L123028 111617
L123056 111589
L123056 111645
" />
<path d="M123309 111477
L123591 111477
" />
<path d="M123253 111645
L123450 111055
L123647 111645
" />
<path d="M123844 111589
L123872 111617
L123844 111645
L123815 111617
L123844 111589
L123844 111645
" />
<path d="M125025 111645
L125025 111055
" />
<path d="M125081 111421
L125250 111645
" />
<path d="M125250 111252
L125025 111477
" />
<path d="M125503 111645
L125503 111252
" />
<path d="M125503 111055
L125475 111083
L125503 111111
L125531 111083
L125503 111055
L125503 111111
" />
<path d="M126037 111617
L125981 111645
L125868 111645
L125812 111617
L125784 111589
L125756 111533
L125756 111364
L125784 111308
L125812 111280
L125868 111252
L125981 111252
L126037 111280
" />
<path d="M126543 111645
L126543 111336
L126515 111280
L126459 111252
L126346 111252
L126290 111280
" />
<path d="M126543 111617
L126487 111645
L126346 111645
L126290 111617
L126262 111561
L126262 111505
L126290 111449
L126346 111421
L126487 111421
L126543 111392
" />
<path d="M127078 111645
L127078 111055
" />
<path d="M127078 111617
L127021 111645
L126909 111645
L126853 111617
L126824 111589
L126796 111533
L126796 111364
L126824 111308
L126853 111280
L126909 111252
L127021 111252
L127078 111280
" />
<path d="M128090 111055
L127809 111055
L127781 111336
L127809 111308
L127865 111280
L128006 111280
L128062 111308
L128090 111336
L128118 111392
L128118 111533
L128090 111589
L128062 111617
L128006 111645
L127865 111645
L127809 111617
L127781 111589
" />
<path d="M128371 111589
L128399 111617
L128371 111645
L128343 111617
L128371 111589
L128371 111645
" />
<path d="M128765 111055
L128821 111055
L128877 111083
L128905 111111
L128934 111167
L128962 111280
L128962 111421
L128934 111533
L128905 111589
L128877 111617
L128821 111645
L128765 111645
L128709 111617
L128680 111589
L128652 111533
L128624 111421
L128624 111280
L128652 111167
L128680 111111
L128709 111083
L128765 111055
" />
<path d="M129215 111589
L129243 111617
L129215 111645
L129187 111617
L129215 111589
L129215 111645
" />
<path d="M129468 111111
L129496 111083
L129552 111055
L129693 111055
L129749 111083
L129777 111111
L129805 111167
L129805 111224
L129777 111308
L129440 111645
L129805 111645
" />
<path d="M130058 111421
L130508 111421
" />
<path d="M130283 111645
L130283 111196
" />
<path d="M131043 111645
L131043 111055
" />
<path d="M131043 111617
L130986 111645
L130874 111645
L130818 111617
L130790 111589
L130761 111533
L130761 111364
L130790 111308
L130818 111280
L130874 111252
L130986 111252
L131043 111280
" />
<path d="M131240 111252
L131465 111252
" />
<path d="M131324 111645
L131324 111139
L131352 111083
L131408 111055
L131465 111055
" />
<path d="M131633 111617
L131689 111645
L131802 111645
L131858 111617
L131886 111561
L131886 111533
L131858 111477
L131802 111449
L131718 111449
L131661 111421
L131633 111364
L131633 111336
L131661 111280
L131718 111252
L131802 111252
L131858 111280
" />
<path d="M132393 111252
L132393 111730
L132364 111786
L132336 111814
L132280 111842
L132196 111842
L132139 111814
" />
<path d="M132393 111617
L132336 111645
L132224 111645
L132168 111617
L132139 111589
L132111 111533
L132111 111364
L132139 111308
L132168 111280
L132224 111252
L132336 111252
L132393 111280
" />
<path d="M132983 111645
L132646 111645
" />
<path d="M132814 111645
L132814 111055
L132758 111139
L132702 111196
L132646 111224
" />
<path d="M133236 111421
L133686 111421
" />
<path d="M134277 111645
L133939 111645
" />
<path d="M134108 111645
L134108 111055
L134052 111139
L133995 111196
L133939 111224
" />
</g>
<g style="fill:#000000; fill-opacity:0.0; 
stroke:#000000; stroke-width:39.3701; stroke-opacity:1; 
stroke-linecap:round; stroke-linejoin:round;">
</g>
<g style="fill:#000000; fill-opacity:0.0; 
stroke:#000000; stroke-width:59.0551; stroke-opacity:1; 
stroke-linecap:round; stroke-linejoin:round;">
<path d="M118105 109646
L160625 109646
" />
</g>
<g style="fill:#000000; fill-opacity:0.0; 
stroke:#000000; stroke-width:39.3701; stroke-opacity:1; 
stroke-linecap:round; stroke-linejoin:round;">
</g>
<g style="fill:#000000; fill-opacity:0.0; 
stroke:#000000; stroke-width:118.11; stroke-opacity:1; 
stroke-linecap:round; stroke-linejoin:round;">
<path d="M152519 110543
L152322 110262
" />
<path d="M152181 110543
L152181 109953
L152406 109953
L152462 109981
L152490 110009
L152519 110065
L152519 110149
L152490 110206
L152462 110234
L152406 110262
L152181 110262
" />
<path d="M152997 110515
L152940 110543
L152828 110543
L152772 110515
L152743 110459
L152743 110234
L152772 110178
L152828 110149
L152940 110149
L152997 110178
L153025 110234
L153025 110290
L152743 110346
" />
<path d="M153222 110149
L153362 110543
L153503 110149
" />
<path d="M153728 110487
L153756 110515
L153728 110543
L153700 110515
L153728 110487
L153728 110543
" />
<path d="M153728 110178
L153756 110206
L153728 110234
L153700 110206
L153728 110178
L153728 110234
" />
<path d="M154768 110543
L154431 110543
" />
<path d="M154600 110543
L154600 109953
L154543 110037
L154487 110093
L154431 110121
" />
<path d="M155021 110487
L155049 110515
L155021 110543
L154993 110515
L155021 110487
L155021 110543
" />
<path d="M155415 109953
L155471 109953
L155528 109981
L155556 110009
L155584 110065
L155612 110178
L155612 110318
L155584 110431
L155556 110487
L155528 110515
L155471 110543
L155415 110543
L155359 110515
L155331 110487
L155303 110431
L155274 110318
L155274 110178
L155303 110065
L155331 110009
L155359 109981
L155415 109953
" />
</g>
<g style="fill:#000000; fill-opacity:0.0; 
stroke:#000000; stroke-width:39.3701; stroke-opacity:1; 
stroke-linecap:round; stroke-linejoin:round;">
</g>
<g style="fill:#000000; fill-opacity:0.0; 
stroke:#000000; stroke-width:59.0551; stroke-opacity:1; 
stroke-linecap:round; stroke-linejoin:round;">
<path d="M118641 110515
L118725 110543
L118866 110543
L118922 110515
L118950 110487
L118979 110431
L118979 110374
L118950 110318
L118922 110290
L118866 110262
L118754 110234
L118697 110206
L118669 110178
L118641 110121
L118641 110065
L118669 110009
L118697 109981
L118754 109953
L118894 109953
L118979 109981
" />
<path d="M119232 110543
L119232 110149
" />
<path d="M119232 109953
L119204 109981
L119232 110009
L119260 109981
L119232 109953
L119232 110009
" />
<path d="M119457 110149
L119766 110149
L119457 110543
L119766 110543
" />
<path d="M120216 110515
L120160 110543
L120047 110543
L119991 110515
L119963 110459
L119963 110234
L119991 110178
L120047 110149
L120160 110149
L120216 110178
L120244 110234
L120244 110290
L119963 110346
" />
<path d="M120497 110487
L120525 110515
L120497 110543
L120469 110515
L120497 110487
L120497 110543
" />
<path d="M120497 110178
L120525 110206
L120497 110234
L120469 110206
L120497 110178
L120497 110234
" />
<path d="M121200 110374
L121481 110374
" />
<path d="M121144 110543
L121341 109953
L121538 110543
" />
<path d="M121678 109953
L122044 109953
L121847 110178
L121931 110178
L121988 110206
L122016 110234
L122044 110290
L122044 110431
L122016 110487
L121988 110515
L121931 110543
L121763 110543
L121706 110515
L121678 110487
" />
</g>
<g style="fill:#000000; fill-opacity:0.0; 
stroke:#000000; stroke-width:39.3701; stroke-opacity:1; 
stroke-linecap:round; stroke-linejoin:round;">
</g>
<g style="fill:#000000; fill-opacity:0.0; 
stroke:#000000; stroke-width:59.0551; stroke-opacity:1; 
stroke-linecap:round; stroke-linejoin:round;">
<path d="M152134 111645
L152134 111055
" />
<path d="M152668 111645
L152668 111055
" />
<path d="M152668 111617
L152612 111645
L152499 111645
L152443 111617
L152415 111589
L152387 111533
L152387 111364
L152415 111308
L152443 111280
L152499 111252
L152612 111252
L152668 111280
" />
<path d="M152949 111589
L152977 111617
L152949 111645
L152921 111617
L152949 111589
L152949 111645
" />
<path d="M152949 111280
L152977 111308
L152949 111336
L152921 111308
L152949 111280
L152949 111336
" />
<path d="M153990 111645
L153652 111645
" />
<path d="M153821 111645
L153821 111055
L153765 111139
L153709 111196
L153652 111224
" />
<path d="M154665 111027
L154159 111786
" />
<path d="M155171 111645
L154833 111645
" />
<path d="M155002 111645
L155002 111055
L154946 111139
L154890 111196
L154833 111224
" />
</g>
<g style="fill:#000000; fill-opacity:0.0; 
stroke:#000000; stroke-width:39.3701; stroke-opacity:1; 
stroke-linecap:round; stroke-linejoin:round;">
</g>
<g style="fill:#000000; fill-opacity:0.0; 
stroke:#000000; stroke-width:59.0551; stroke-opacity:1; 
stroke-linecap:round; stroke-linejoin:round;">
<path d="M118105 108071
L160625 108071
" />
</g>
<g style="fill:#000000; fill-opacity:0.0; 
stroke:#000000; stroke-width:39.3701; stroke-opacity:1; 
stroke-linecap:round; stroke-linejoin:round;">
</g>
<g style="fill:#000000; fill-opacity:0.0; 
stroke:#000000; stroke-width:157.48; stroke-opacity:1; 
stroke-linecap:round; stroke-linejoin:round;">
<path d="M118780 108349
L119230 108349
" />
<path d="M118906 109136
L119005 108349
" />
<path d="M119394 109136
L119459 108611
" />
<path d="M119492 108349
L119450 108386
L119483 108424
L119525 108386
L119492 108349
L119483 108424
" />
<path d="M119722 108611
L120022 108611
" />
<path d="M119867 108349
L119783 109024
L119811 109099
L119881 109136
L119956 109136
" />
<path d="M120331 109136
L120261 109099
L120233 109024
L120317 108349
" />
<path d="M120936 109099
L120856 109136
L120706 109136
L120636 109099
L120607 109024
L120645 108724
L120692 108649
L120772 108611
L120921 108611
L120992 108649
L121020 108724
L121011 108799
L120626 108874
" />
<path d="M121315 109061
L121348 109099
L121306 109136
L121273 109099
L121315 109061
L121306 109136
" />
<path d="M121367 108649
L121400 108686
L121357 108724
L121325 108686
L121367 108649
L121357 108724
" />
<path d="M122248 109099
L122356 109136
L122543 109136
L122623 109099
L122665 109061
L122712 108986
L122721 108911
L122693 108836
L122660 108799
L122590 108761
L122445 108724
L122374 108686
L122342 108649
L122314 108574
L122323 108499
L122370 108424
L122412 108386
L122492 108349
L122679 108349
L122787 108386
" />
<path d="M123096 108611
L122998 109399
" />
<path d="M123092 108649
L123171 108611
L123321 108611
L123391 108649
L123424 108686
L123452 108761
L123424 108986
L123377 109061
L123335 109099
L123256 109136
L123106 109136
L123035 109099
" />
<path d="M124048 109099
L123968 109136
L123818 109136
L123748 109099
L123720 109024
L123757 108724
L123804 108649
L123884 108611
L124034 108611
L124104 108649
L124132 108724
L124123 108799
L123738 108874
" />
<path d="M124530 109136
L124460 109099
L124432 109024
L124516 108349
" />
<path d="M124798 109099
L124868 109136
L125018 109136
L125098 109099
L125144 109024
L125149 108986
L125121 108911
L125051 108874
L124938 108874
L124868 108836
L124840 108761
L124844 108724
L124891 108649
L124971 108611
L125083 108611
L125154 108649
" />
<path d="M125468 109136
L125566 108349
" />
<path d="M125529 108649
L125608 108611
L125758 108611
L125829 108649
L125861 108686
L125890 108761
L125861 108986
L125815 109061
L125772 109099
L125693 109136
L125543 109136
L125472 109099
" />
<path d="M126485 109099
L126405 109136
L126255 109136
L126185 109099
L126157 109024
L126194 108724
L126241 108649
L126321 108611
L126471 108611
L126541 108649
L126569 108724
L126560 108799
L126176 108874
" />
<path d="M126855 109136
L126921 108611
" />
<path d="M126902 108761
L126949 108686
L126991 108649
L127071 108611
L127146 108611
" />
<path d="M127746 108611
L127666 109249
L127619 109324
L127577 109361
L127497 109399
L127385 109399
L127314 109361
" />
<path d="M127685 109099
L127605 109136
L127455 109136
L127385 109099
L127352 109061
L127324 108986
L127352 108761
L127399 108686
L127441 108649
L127521 108611
L127671 108611
L127741 108649
" />
<path d="M128678 108349
L129166 108349
L128866 108649
L128978 108649
L129049 108686
L129081 108724
L129110 108799
L129086 108986
L129039 109061
L128997 109099
L128917 109136
L128692 109136
L128622 109099
L128589 109061
" />
<path d="M129653 108349
L129728 108349
L129799 108386
L129831 108424
L129859 108499
L129878 108649
L129855 108836
L129799 108986
L129752 109061
L129709 109099
L129630 109136
L129555 109136
L129484 109099
L129452 109061
L129424 108986
L129405 108836
L129428 108649
L129484 108499
L129531 108424
L129574 108386
L129653 108349
" />
<path d="M130206 108424
L130248 108386
L130328 108349
L130516 108349
L130586 108386
L130619 108424
L130647 108499
L130637 108574
L130586 108686
L130080 109136
L130567 109136
" />
<path d="M130928 108349
L131415 108349
L131116 108649
L131228 108649
L131298 108686
L131331 108724
L131359 108799
L131336 108986
L131289 109061
L131247 109099
L131167 109136
L130942 109136
L130872 109099
L130839 109061
" />
<path d="M132208 108611
L132508 108611
" />
<path d="M132353 108349
L132269 109024
L132297 109099
L132367 109136
L132442 109136
" />
<path d="M133009 109099
L132929 109136
L132779 109136
L132709 109099
L132681 109024
L132718 108724
L132765 108649
L132845 108611
L132995 108611
L133065 108649
L133093 108724
L133084 108799
L132700 108874
" />
<path d="M133379 109136
L133445 108611
" />
<path d="M133436 108686
L133478 108649
L133557 108611
L133670 108611
L133740 108649
L133768 108724
L133717 109136
" />
<path d="M133768 108724
L133815 108649
L133895 108611
L134007 108611
L134078 108649
L134106 108724
L134054 109136
" />
<path d="M134495 108611
L134396 109399
" />
<path d="M134490 108649
L134570 108611
L134720 108611
L134790 108649
L134823 108686
L134851 108761
L134823 108986
L134776 109061
L134734 109099
L134654 109136
L134504 109136
L134434 109099
" />
<path d="M135254 109136
L135184 109099
L135156 109024
L135240 108349
" />
<path d="M135891 109136
L135943 108724
L135915 108649
L135845 108611
L135695 108611
L135615 108649
" />
<path d="M135896 109099
L135817 109136
L135629 109136
L135559 109099
L135531 109024
L135540 108949
L135587 108874
L135667 108836
L135854 108836
L135934 108799
" />
<path d="M136220 108611
L136520 108611
" />
<path d="M136365 108349
L136281 109024
L136309 109099
L136379 109136
L136454 109136
" />
<path d="M137021 109099
L136941 109136
L136791 109136
L136721 109099
L136693 109024
L136730 108724
L136777 108649
L136857 108611
L137007 108611
L137077 108649
L137105 108724
L137096 108799
L136712 108874
" />
</g>
<g style="fill:#000000; fill-opacity:0.0; 
stroke:#000000; stroke-width:39.3701; stroke-opacity:1; 
stroke-linecap:round; stroke-linejoin:round;">
</g>
<g style="fill:#000000; fill-opacity:0.0; 
stroke:#000000; stroke-width:59.0551; stroke-opacity:1; 
stroke-linecap:round; stroke-linejoin:round;">
<path d="M118866 107320
L118669 107320
" />
<path d="M118669 107630
L118669 107039
L118950 107039
" />
<path d="M119175 107630
L119175 107236
" />
<path d="M119175 107039
L119147 107067
L119175 107095
L119204 107067
L119175 107039
L119175 107095
" />
<path d="M119541 107630
L119485 107602
L119457 107545
L119457 107039
" />
<path d="M119991 107602
L119935 107630
L119822 107630
L119766 107602
L119738 107545
L119738 107320
L119766 107264
L119822 107236
L119935 107236
L119991 107264
L120019 107320
L120019 107377
L119738 107433
" />
<path d="M120272 107573
L120300 107602
L120272 107630
L120244 107602
L120272 107573
L120272 107630
" />
<path d="M120272 107264
L120300 107292
L120272 107320
L120244 107292
L120272 107264
L120272 107320
" />
<path d="M120975 107602
L121060 107630
L121200 107630
L121256 107602
L121285 107573
L121313 107517
L121313 107461
L121285 107405
L121256 107377
L121200 107349
L121088 107320
L121031 107292
L121003 107264
L120975 107208
L120975 107152
L121003 107095
L121031 107067
L121088 107039
L121228 107039
L121313 107067
" />
<path d="M121566 107236
L121566 107827
" />
<path d="M121566 107264
L121622 107236
L121734 107236
L121791 107264
L121819 107292
L121847 107349
L121847 107517
L121819 107573
L121791 107602
L121734 107630
L121622 107630
L121566 107602
" />
<path d="M122325 107602
L122269 107630
L122156 107630
L122100 107602
L122072 107545
L122072 107320
L122100 107264
L122156 107236
L122269 107236
L122325 107264
L122353 107320
L122353 107377
L122072 107433
" />
<path d="M122691 107630
L122634 107602
L122606 107545
L122606 107039
" />
<path d="M122887 107602
L122944 107630
L123056 107630
L123112 107602
L123141 107545
L123141 107517
L123112 107461
L123056 107433
L122972 107433
L122916 107405
L122887 107349
L122887 107320
L122916 107264
L122972 107236
L123056 107236
L123112 107264
" />
<path d="M123394 107630
L123394 107039
" />
<path d="M123394 107264
L123450 107236
L123562 107236
L123619 107264
L123647 107292
L123675 107349
L123675 107517
L123647 107573
L123619 107602
L123562 107630
L123450 107630
L123394 107602
" />
<path d="M124153 107602
L124097 107630
L123984 107630
L123928 107602
L123900 107545
L123900 107320
L123928 107264
L123984 107236
L124097 107236
L124153 107264
L124181 107320
L124181 107377
L123900 107433
" />
<path d="M124434 107630
L124434 107236
" />
<path d="M124434 107349
L124462 107292
L124490 107264
L124547 107236
L124603 107236
" />
<path d="M125053 107236
L125053 107714
L125025 107770
L124997 107798
L124940 107827
L124856 107827
L124800 107798
" />
<path d="M125053 107602
L124997 107630
L124884 107630
L124828 107602
L124800 107573
L124772 107517
L124772 107349
L124800 107292
L124828 107264
L124884 107236
L124997 107236
L125053 107264
" />
<path d="M125334 107405
L125784 107405
" />
<path d="M125981 107039
L126318 107039
" />
<path d="M126150 107630
L126150 107039
" />
<path d="M126824 107067
L126768 107039
L126684 107039
L126600 107067
L126543 107124
L126515 107180
L126487 107292
L126487 107377
L126515 107489
L126543 107545
L126600 107602
L126684 107630
L126740 107630
L126824 107602
L126853 107573
L126853 107377
L126740 107377
" />
<path d="M127106 107405
L127556 107405
" />
<path d="M127837 107630
L127837 107039
L128062 107039
L128118 107067
L128146 107095
L128174 107152
L128174 107236
L128146 107292
L128118 107320
L128062 107349
L127837 107349
" />
<path d="M128765 107573
L128737 107602
L128652 107630
L128596 107630
L128512 107602
L128456 107545
L128427 107489
L128399 107377
L128399 107292
L128427 107180
L128456 107124
L128512 107067
L128596 107039
L128652 107039
L128737 107067
L128765 107095
" />
<path d="M129018 107405
L129468 107405
" />
<path d="M129693 107039
L130058 107039
L129862 107264
L129946 107264
L130002 107292
L130030 107320
L130058 107377
L130058 107517
L130030 107573
L130002 107602
L129946 107630
L129777 107630
L129721 107602
L129693 107573
" />
<path d="M130424 107039
L130480 107039
L130537 107067
L130565 107095
L130593 107152
L130621 107264
L130621 107405
L130593 107517
L130565 107573
L130537 107602
L130480 107630
L130424 107630
L130368 107602
L130340 107573
L130312 107517
L130283 107405
L130283 107264
L130312 107152
L130340 107095
L130368 107067
L130424 107039
" />
<path d="M130846 107095
L130874 107067
L130930 107039
L131071 107039
L131127 107067
L131155 107095
L131183 107152
L131183 107208
L131155 107292
L130818 107630
L131183 107630
" />
<path d="M131380 107039
L131746 107039
L131549 107264
L131633 107264
L131689 107292
L131718 107320
L131746 107377
L131746 107517
L131718 107573
L131689 107602
L131633 107630
L131465 107630
L131408 107602
L131380 107573
" />
<path d="M131999 107573
L132027 107602
L131999 107630
L131971 107602
L131999 107573
L131999 107630
" />
<path d="M132280 107630
L132280 107039
" />
<path d="M132336 107405
L132505 107630
" />
<path d="M132505 107236
L132280 107461
" />
<path d="M132758 107630
L132758 107236
" />
<path d="M132758 107039
L132730 107067
L132758 107095
L132786 107067
L132758 107039
L132758 107095
" />
<path d="M133292 107602
L133236 107630
L133124 107630
L133067 107602
L133039 107573
L133011 107517
L133011 107349
L133039 107292
L133067 107264
L133124 107236
L133236 107236
L133292 107264
" />
<path d="M133799 107630
L133799 107320
L133770 107264
L133714 107236
L133602 107236
L133546 107264
" />
<path d="M133799 107602
L133742 107630
L133602 107630
L133546 107602
L133517 107545
L133517 107489
L133546 107433
L133602 107405
L133742 107405
L133799 107377
" />
<path d="M134333 107630
L134333 107039
" />
<path d="M134333 107602
L134277 107630
L134164 107630
L134108 107602
L134080 107573
L134052 107517
L134052 107349
L134080 107292
L134108 107264
L134164 107236
L134277 107236
L134333 107264
" />
<path d="M134474 107686
L134923 107686
" />
<path d="M135064 107236
L135064 107827
" />
<path d="M135064 107264
L135120 107236
L135233 107236
L135289 107264
L135317 107292
L135345 107349
L135345 107517
L135317 107573
L135289 107602
L135233 107630
L135120 107630
L135064 107602
" />
<path d="M135851 107602
L135795 107630
L135683 107630
L135626 107602
L135598 107573
L135570 107517
L135570 107349
L135598 107292
L135626 107264
L135683 107236
L135795 107236
L135851 107264
" />
<path d="M136105 107630
L136105 107039
" />
<path d="M136105 107264
L136161 107236
L136273 107236
L136330 107264
L136358 107292
L136386 107349
L136386 107517
L136358 107573
L136330 107602
L136273 107630
L136161 107630
L136105 107602
" />
</g>
<g style="fill:#000000; fill-opacity:0.0; 
stroke:#000000; stroke-width:39.3701; stroke-opacity:1; 
stroke-linecap:round; stroke-linejoin:round;">
</g>
<g style="fill:#000000; fill-opacity:0.0; 
stroke:#000000; stroke-width:59.0551; stroke-opacity:1; 
stroke-linecap:round; stroke-linejoin:round;">
<path d="M118105 105709
L160625 105709
" />
</g>
<g style="fill:#000000; fill-opacity:0.0; 
stroke:#000000; stroke-width:39.3701; stroke-opacity:1; 
stroke-linecap:round; stroke-linejoin:round;">
</g>
<g style="fill:#000000; fill-opacity:0.0; 
stroke:#000000; stroke-width:59.0551; stroke-opacity:1; 
stroke-linecap:round; stroke-linejoin:round;">
<path d="M118641 106539
L118725 106567
L118866 106567
L118922 106539
L118950 106510
L118979 106454
L118979 106398
L118950 106342
L118922 106314
L118866 106286
L118754 106257
L118697 106229
L118669 106201
L118641 106145
L118641 106089
L118669 106032
L118697 106004
L118754 105976
L118894 105976
L118979 106004
" />
<path d="M119232 106567
L119232 105976
" />
<path d="M119485 106567
L119485 106257
L119457 106201
L119400 106173
L119316 106173
L119260 106201
L119232 106229
" />
<path d="M119991 106539
L119935 106567
L119822 106567
L119766 106539
L119738 106482
L119738 106257
L119766 106201
L119822 106173
L119935 106173
L119991 106201
L120019 106257
L120019 106314
L119738 106370
" />
<path d="M120497 106539
L120441 106567
L120328 106567
L120272 106539
L120244 106482
L120244 106257
L120272 106201
L120328 106173
L120441 106173
L120497 106201
L120525 106257
L120525 106314
L120244 106370
" />
<path d="M120694 106173
L120919 106173
" />
<path d="M120778 105976
L120778 106482
L120806 106539
L120863 106567
L120919 106567
" />
<path d="M121116 106510
L121144 106539
L121116 106567
L121088 106539
L121116 106510
L121116 106567
" />
<path d="M121116 106201
L121144 106229
L121116 106257
L121088 106229
L121116 106201
L121116 106257
" />
</g>
<g style="fill:#000000; fill-opacity:0.0; 
stroke:#000000; stroke-width:39.3701; stroke-opacity:1; 
stroke-linecap:round; stroke-linejoin:round;">
</g>
<g style="fill:#000000; fill-opacity:0.0; 
stroke:#000000; stroke-width:59.0551; stroke-opacity:1; 
stroke-linecap:round; stroke-linejoin:round;">
<path d="M125979 109646
L125979 110827
" />
</g>
<g style="fill:#000000; fill-opacity:0.0; 
stroke:#000000; stroke-width:39.3701; stroke-opacity:1; 
stroke-linecap:round; stroke-linejoin:round;">
</g>
<g style="fill:#000000; fill-opacity:0.0; 
stroke:#000000; stroke-width:59.0551; stroke-opacity:1; 
stroke-linecap:round; stroke-linejoin:round;">
<path d="M151176 109646
L151176 112205
" />
</g>
<g style="fill:#C2C200; fill-opacity:0.0; 
stroke:#C2C200; stroke-width:59.0551; stroke-opacity:1; 
stroke-linecap:round; stroke-linejoin:round;">
<path d="M133464 15551
L132874 15551
" />
<path d="M72145 8464
L72145 9055
" />
<path d="M80610 8464
L80610 9055
" />
<path d="M71850 8464
L72145 8464
" />
<path d="M80905 8464
L80610 8464
" />
<path d="M71850 8464
L71555 8464
" />
<path d="M20078 88385
L19291 88385
" />
<path d="M23622 95472
L23228 95472
" />
<path d="M72047 95472
L72047 95275
" />
<path d="M80708 95472
L80708 95275
" />
<path d="M81003 95472
L80708 95472
" />
<path d="M133464 88385
L132578 88385
" />
<path d="M20177 15551
L19291 15551
" />
<path d="M72145.7 9055.12 A4232.28 4232.28 0.0 0 0 80610.2 9055.12 " />
<path d="M23622 95472
L72047 95472
" />
<path d="M23228 91535
L23228 95472
" />
<path d="M19291 15551
L19291 88385
" />
<path d="M23326 8464
L23326 12401
" />
<path d="M71555 8464
L23326 8464
" />
<path d="M129527 8464
L80905 8464
" />
<path d="M129527 12204
L129527 8464
" />
<path d="M133464 88385
L133464 15551
" />
<path d="M129429 95472
L129429 91535
" />
<path d="M81003 95472
L129429 95472
" />
<path d="M132579 88385.8 A3149.61 3149.61 0.0 0 0 129429 91535.4 " />
<path d="M129528 12204.7 A3346.46 3346.46 0.0 0 0 132874 15551.2 " />
<path d="M20177.2 15551.2 A3149.61 3149.61 0.0 0 0 23326.8 12401.6 " />
<path d="M23228.3 91535.4 A3149.61 3149.61 0.0 0 0 20078.7 88385.8 " />
<path d="M80708.7 95275.6 A4330.71 4330.71 0.0 0 0 72047.2 95275.6 " />
</g> 
</svg>
