M48
INCH,TZ
T1C0.010
T2C0.024
T3C0.035
T4C0.035
T5C0.039
T6C0.052
T7C0.063
T8C0.108
%
G90
G05
T1
X63187Y25459
T2
X2872Y45065
X2872Y43096
X2872Y41128
X2872Y39159
X2872Y37191
X2872Y35222
X2872Y33254
X2872Y31285
X2872Y29317
X2872Y27348
X2872Y25380
X2872Y23411
X2872Y21443
X2872Y19474
X2872Y17506
X2872Y15537
X2872Y13569
X2872Y8648
X2872Y7663
X2872Y6679
X2872Y5695
X4841Y31285
X4841Y29317
X4841Y27348
X4841Y25380
X4841Y23411
X4841Y21443
X4841Y19474
X4841Y17506
X4841Y15537
X4841Y4711
X5825Y13569
X6809Y37191
X6809Y35222
X6809Y33254
X6809Y29317
X6809Y27348
X6809Y25380
X6809Y23411
X6809Y21443
X6809Y19474
X6809Y17506
X6809Y4711
X8778Y25380
X8778Y23411
X8778Y21443
X8778Y19474
X8778Y13569
X9762Y36207
X9762Y34238
X9762Y32270
X9762Y30301
X9762Y14553
X10746Y43096
X10746Y35222
X10746Y33254
X10746Y17506
X10746Y14553
X10746Y4711
X10746Y2742
X11730Y36207
X11730Y14553
X11730Y10616
X11730Y9632
X11730Y8648
X11730Y7663
X12715Y43096
X12715Y35222
X12715Y33254
X12715Y12585
X12715Y6679
X12715Y2742
X13699Y29317
X14683Y30301
X14683Y29317
X14683Y26364
X14683Y24396
X14683Y22427
X14683Y12585
X14683Y6679
X15667Y14553
X15667Y12585
X17636Y14553
X17636Y12585
X18620Y33254
X19604Y14553
X20589Y43096
X20589Y37191
X20589Y35222
X20589Y33254
X20589Y13569
X20589Y5695
X20589Y2742
X21573Y14553
X22557Y43096
X22557Y41128
X22557Y37191
X22557Y35222
X22557Y33254
X22557Y13569
X22557Y9632
X22557Y7663
X22557Y5695
X23541Y14553
X24526Y43096
X24526Y35222
X24526Y33254
X24526Y13569
X24526Y5695
X24526Y2742
X25510Y36207
X26494Y35222
X26494Y14553
X27478Y36207
X28463Y35222
X28463Y33254
X28463Y31285
X28463Y29317
X28463Y27348
X28463Y25380
X28463Y23411
X28463Y21443
X29447Y32270
X29447Y30301
X29447Y28333
X29447Y19671
X30431Y37191
X30431Y26364
X30431Y24396
X30431Y22427
X30431Y20459
X30431Y13569
X31415Y25380
X31415Y19671
X31415Y14553
X32400Y43096
X32400Y37191
X32400Y35222
X32400Y33254
X32400Y13569
X32400Y7663
X32400Y2742
X33384Y37191
X33384Y14553
X34368Y43096
X34368Y13569
X34368Y2742
X35352Y33254
X35352Y14553
X36337Y34238
X36337Y29317
X38305Y31285
X38305Y29317
X38305Y23411
X38305Y21443
X40274Y33254
X40274Y31285
X40274Y29317
X40274Y23411
X40274Y21443
X40274Y19474
X40274Y17506
X40274Y13569
X42242Y43096
X42242Y41128
X42242Y37191
X42242Y35222
X42242Y33254
X42242Y31285
X42242Y29317
X42242Y21443
X42242Y19474
X42242Y17506
X42242Y13569
X42242Y7663
X42242Y2742
X43226Y9632
X44211Y43096
X44211Y41128
X44211Y39159
X44211Y6679
X44211Y2742
X46179Y5695
X46179Y2742
X48148Y29317
X48148Y27348
X48148Y5695
X48541Y970
X50116Y31285
X50116Y29317
X50116Y27348
X50116Y7663
X50116Y3726
X51297Y970
X52085Y31285
X52085Y29317
X52085Y27348
X52085Y25380
X52085Y7663
X54053Y31285
X54053Y29317
X54053Y27348
X54053Y25380
X54053Y23411
X54053Y21443
X54053Y19474
X54053Y17506
X54053Y7663
X56022Y31285
X56022Y29317
X56022Y27348
X56022Y25380
X56022Y23411
X56022Y21443
X56022Y19474
X56022Y17506
X56022Y7663
X57990Y31285
X57990Y29317
X57990Y27348
X57990Y25380
X57990Y23411
X57990Y21443
X57990Y19474
X57990Y17506
X57990Y1758
X59959Y31285
X59959Y23411
X59959Y21443
X59959Y19474
X59959Y17506
X59959Y15537
X59959Y13569
X59959Y1758
X61927Y31285
X61927Y23411
X61927Y21443
X61927Y19474
X61927Y17506
X61927Y15537
X61927Y13569
X61927Y11600
X61927Y9632
X61927Y7663
X61927Y1758
X63896Y31285
X63896Y23411
X63896Y21443
X63896Y19474
X63896Y17506
X63896Y15537
X63896Y13569
X63896Y11600
X63896Y9632
X63896Y7663
X65864Y29317
X65864Y27348
X65864Y25380
X65864Y23411
X65864Y21443
X65864Y19474
X65864Y17506
X65864Y15537
X65864Y13569
X65864Y11600
T3
X5500Y43250
X5500Y5750
X6000Y44250
X6000Y6750
X6500Y43250
X6500Y5750
X7000Y44250
X7000Y6750
X7500Y43250
X7500Y5750
X8000Y44250
X8000Y6750
X8500Y43250
X8500Y5750
X9000Y44250
X9000Y6750
X15000Y43250
X15000Y5750
X15500Y44250
X15500Y6750
X16000Y43250
X16000Y5750
X16500Y44250
X16500Y6750
X17000Y43250
X17000Y5750
X17500Y44250
X17500Y6750
X18000Y43250
X18000Y5750
X18500Y44250
X18500Y6750
X26500Y43250
X26500Y5750
X27000Y44250
X27000Y6750
X27500Y43250
X27500Y5750
X28000Y44250
X28000Y6750
X28500Y43250
X28500Y5750
X29000Y44250
X29000Y6750
X29500Y43250
X29500Y5750
X30000Y44250
X30000Y6750
X36000Y43250
X36000Y5750
X36500Y44250
X36500Y6750
X37000Y43250
X37000Y5750
X37500Y44250
X37500Y6750
X38000Y43250
X38000Y5750
X38500Y44250
X38500Y6750
X39000Y43250
X39000Y5750
X39500Y44250
X39500Y6750
T4
X3125Y11271
X3125Y9750
X5875Y40250
X5875Y38725
X5875Y11275
X5875Y9750
X8623Y38727
X8625Y40250
X8625Y11250
X8625Y9750
X10350Y12300
X10990Y32000
X10990Y31000
X10990Y30000
X10990Y29000
X10990Y24000
X10990Y23000
X10990Y22000
X10990Y21000
X11350Y38727
X11375Y40250
X11990Y32000
X11990Y31000
X11990Y30000
X11990Y29000
X11990Y28000
X11990Y27000
X11990Y26000
X11990Y25000
X11990Y24000
X11990Y23000
X11990Y22000
X11990Y21000
X11990Y20000
X11990Y19000
X11990Y18000
X11990Y17000
X12600Y15750
X12625Y9750
X12650Y11273
X13700Y37650
X15375Y40250
X15375Y38750
X15375Y9750
X15377Y11273
X15785Y31325
X15785Y29159
X15785Y24474
X15785Y22073
X15785Y19711
X15825Y26797
X15825Y17585
X15850Y15750
X16500Y35700
X17006Y16325
X18000Y34250
X18125Y40250
X18125Y38725
X18125Y11275
X18125Y9750
X18817Y25577
X18817Y23293
X19093Y32821
X19093Y16364
X19850Y12250
X20450Y23600
X20650Y21900
X20800Y44050
X20875Y40250
X20875Y38729
X21250Y23600
X21300Y2900
X21455Y32821
X21455Y16364
X22250Y44250
X22500Y23750
X22500Y3100
X22505Y26255
X23700Y44250
X23700Y3150
X23817Y32821
X23817Y16364
X23950Y23600
X24125Y11271
X24125Y9750
X25150Y37600
X26140Y32781
X26140Y16364
X26875Y40250
X26875Y38725
X26875Y11275
X26875Y9750
X27000Y33250
X27000Y15750
X27400Y29159
X27439Y26797
X27439Y24435
X27439Y22073
X27439Y19711
X27439Y17585
X27596Y31285
X28500Y13750
X29600Y34250
X29623Y38727
X29625Y40250
X29625Y11250
X29625Y9750
X29700Y18350
X31100Y12350
X31750Y15900
X31990Y32000
X31990Y31000
X31990Y30000
X31990Y29000
X31990Y24000
X31990Y23000
X31990Y22000
X31990Y21000
X32350Y38727
X32375Y40250
X32990Y32000
X32990Y31000
X32990Y30000
X32990Y29000
X32990Y28000
X32990Y27000
X32990Y26000
X32990Y25000
X32990Y24000
X32990Y23000
X32990Y22000
X32990Y21000
X32990Y20000
X32990Y19000
X32990Y18000
X32990Y17000
X33550Y34250
X33625Y9750
X33650Y11273
X33990Y32000
X33990Y31000
X33990Y30000
X33990Y29000
X33990Y28000
X33990Y27000
X33990Y26000
X33990Y25000
X33990Y24000
X33990Y23000
X33990Y22000
X33990Y21000
X33990Y20000
X33990Y19000
X33990Y18000
X33990Y17000
X34650Y37700
X34750Y12250
X34990Y28000
X34990Y27000
X34990Y26000
X34990Y25000
X34990Y20000
X34990Y19000
X34990Y18000
X34990Y17000
X36250Y15800
X36375Y40250
X36375Y38750
X36375Y9750
X36377Y11273
X38750Y15850
X39125Y40250
X39125Y38725
X39125Y11275
X39125Y9750
X41650Y44100
X41650Y6050
X41875Y40250
X41875Y38729
X42850Y44250
X42850Y5850
X44100Y5850
X44200Y44250
X44650Y15850
X49750Y18650
X49750Y17850
X49750Y15650
X49750Y14850
X49750Y11800
X49750Y11000
T5
X46250Y30000
X46250Y29000
X46250Y28000
X46250Y27000
X46250Y26000
X46250Y25000
X46250Y24000
X46250Y23000
X46250Y22000
X46250Y21000
X46250Y20000
X46250Y19000
X46250Y18000
X46250Y17000
X46250Y16000
X46250Y15000
X46250Y14000
X46250Y13000
X46250Y12000
X46250Y11000
X47250Y30000
X47250Y29000
X47250Y28000
X47250Y27000
X47250Y26000
X47250Y25000
X47250Y24000
X47250Y23000
X47250Y22000
X47250Y21000
X47250Y20000
X47250Y19000
X47250Y18000
X47250Y17000
X47250Y16000
X47250Y15000
X47250Y14000
X47250Y13000
X47250Y12000
X47250Y11000
X52500Y15750
X52500Y11750
X53500Y15750
X53500Y11750
X54500Y15750
X54500Y11750
X58250Y10250
X60250Y10250
T6
X52920Y2550
X54890Y2550
T7
X64150Y5900
X64150Y4050
X64150Y2200
T8
X46750Y31918
X46750Y9083
X66041Y31917
X66041Y9083
T0
M30
